<?xml version="1.0" standalone="no"?>
<!DOCTYPE svg PUBLIC "-//W3C//DTD SVG 20010904//EN"
 "http://www.w3.org/TR/2001/REC-SVG-20010904/DTD/svg10.dtd">
<svg version="1.0" xmlns="http://www.w3.org/2000/svg"
 width="330.000000pt" height="330.000000pt" viewBox="0 0 330.000000 330.000000"
 preserveAspectRatio="xMidYMid meet">
<metadata>
Created by potrace 1.11, written by Peter Selinger 2001-2013
</metadata>
<g transform="translate(0.000000,330.000000) scale(0.100000,-0.100000)"
fill="#000000" stroke="none">
<path d="M1619 3251 c-46 -47 -37 -106 22 -137 91 -47 175 67 103 140 -37 37
-86 35 -125 -3z m103 -18 c35 -32 14 -93 -35 -98 -52 -6 -85 71 -43 100 27 20
55 19 78 -2z"/>
<path d="M1340 3123 c-64 -26 -102 -81 -102 -149 0 -144 189 -201 274 -82 17
24 23 47 23 85 0 55 -18 90 -67 126 -26 20 -101 31 -128 20z m118 -50 c13 -8
30 -29 37 -46 14 -33 11 -100 -5 -105 -6 -2 -10 -9 -10 -16 0 -14 -46 -43 -75
-47 -98 -14 -169 95 -118 182 31 52 115 68 171 32z"/>
<path d="M1930 3004 c-24 -7 -63 -72 -62 -105 2 -93 118 -138 184 -72 33 34
42 75 24 118 -23 55 -79 77 -146 59z m104 -49 c19 -19 24 -32 21 -57 -9 -69
-92 -98 -135 -48 -65 75 44 175 114 105z"/>
<path d="M1648 2755 c-2 -2 -35 -6 -73 -10 -215 -18 -223 -19 -320 -41 -100
-23 -191 -69 -253 -128 -64 -61 -81 -91 -87 -153 -3 -36 3 -60 22 -102 25 -52
26 -60 20 -174 -3 -66 -8 -121 -10 -123 -11 -12 -165 57 -207 92 -28 23 -66
27 -84 8 -36 -36 1 -219 80 -391 47 -105 125 -232 210 -343 l72 -95 27 -125
c44 -207 75 -381 81 -456 6 -64 4 -79 -26 -155 -65 -168 -98 -313 -103 -452
l-2 -67 425 -5 c382 -5 434 -3 510 13 61 12 127 17 233 16 97 0 147 3 148 10
9 80 -18 253 -59 381 -14 44 -26 82 -27 85 -1 3 -9 23 -19 45 -23 52 -18 122
28 360 66 345 69 357 124 427 132 169 266 430 288 558 3 14 7 31 9 38 10 29
15 138 7 150 -17 25 -50 20 -113 -18 -64 -40 -166 -86 -174 -79 -2 3 -7 57
-10 121 -7 108 -6 119 14 146 48 68 55 136 21 207 -23 48 -126 130 -215 171
-69 32 -207 62 -345 74 -63 5 -131 12 -151 14 -21 3 -39 3 -41 1z"/>
</g>
</svg>
